User Type,Username,Date,Text
,revolver75,2012-04-24T23:38Z,"ye so not hd what a waste of time here is mediainfo of the first episode

General
Unique ID                                : 40272508686017001736729549272710011235 (0x1E4C33FA856AABD260B3C46E3D265963)
Complete name                            : D:Alias HDSeason 1Alias S01E01 Truth Be Told.mkv
Format                                   : Matroska
Format version                           : Version 2
File size                                : 2.87 GiB
Duration                                 : 1h 6mn
Overall bit rate mode                    : Variable
Overall bit rate                         : 6 198 Kbps
Encoded date                             : UTC 2012-03-01 07:09:54
Writing application                      : MakeMKV v1.7.2 win(x64-release)
Writing library                          : libmakemkv v1.7.2 (1.2.0/1.1.0) win(x64-release)

Video
ID                                       : 1
Format                                   : MPEG Video
Format version                           : Version 2
Format profile                           : Main@Main
Format settings, BVOP                    : No
Format settings, Matrix                  : Custom
Codec ID                                 : V_MPEG2
Codec ID/Info                            : MPEG 1 or 2 Video
Duration                                 : 1h 6mn
Bit rate mode                            : Variable
Bit rate                                 : 5 627 Kbps
Maximum bit rate                         : 9 800 Kbps
Width                                    : 720 pixels
Height                                   : 480 pixels
Display aspect ratio                     : 16:9
Original display aspect ratio            : 16:9
Frame rate mode                          : Variable
Frame rate                               : 29.970 fps
Standard                                 : NTSC
Color space                              : YUV
Chroma subsampling                       : 4:2:0
Bit depth                                : 8 bits
Scan type                                : Progressive
Scan order                               : Top Field First
Compression mode                         : Lossy
Bits/(Pixel*Frame)                       : 0.543
Stream size                              : 2.61 GiB (91%)
Language                                 : English
Default                                  : Yes
Forced                                   : No

Audio
ID                                       : 2
Format                                   : AC-3
Format/Info                              : Audio Coding 3
Mode extension                           : CM (complete main)
Codec ID                                 : A_AC3
Duration                                 : 1h 6mn
Bit rate mode                            : Constant
Bit rate                                 : 448 Kbps
Channel(s)                               : 6 channels
Channel positions                        : Front: L C R, Side: L R, LFE
Sampling rate                            : 48.0 KHz
Bit depth                                : 16 bits
Compression mode                         : Lossy
Stream size                              : 213 MiB (7%)
Title                                    : 3/2+1
Language                                 : English
Default                                  : Yes
Forced                                   : No

Menu
00:00:00.000                             : en:Chapter 01
00:00:27.527                             : en:Chapter 02
00:07:12.932                             : en:Chapter 03
00:17:04.473                             : en:Chapter 04
00:18:01.413                             : en:Chapter 05
00:20:32.397                             : en:Chapter 06
00:28:04.382                             : en:Chapter 07
00:28:54.599                             : en:Chapter 08
00:41:20.144                             : en:Chapter 09
00:48:17.477                             : en:Chapter 10
00:49:20.290                             : en:Chapter 11
00:59:12.081                             : en:Chapter 12
01:05:23.419                             : en:Chapter 13"
